<svg id="Layer_1" data-name="Layer 1" xmlns="http://www.w3.org/2000/svg" viewBox="0 0 684.79 138.28"><defs><style>.cls-1,.cls-2,.cls-3,.cls-4,.cls-5,.cls-6{fill:none;stroke:#375678;stroke-miterlimit:10;stroke-width:4px;}.cls-2{stroke-dasharray:7.24 7.24 6.21 7.24;}.cls-3{stroke-dasharray:7.24 6.21 7.24 7.24 6.21 7.24;}.cls-4{stroke-dasharray:7.12 7.12 6.11 7.12;}.cls-5{stroke-dasharray:7.12 6.11 7.12 7.12 6.11 7.12;}.cls-6{stroke-linecap:round;}</style></defs><title>validators_homepage_splash</title><path class="cls-1" d="M133.44,88c1.19,0,2.36,0,3.5-.06" transform="translate(-42.51 -18.87)"/><path class="cls-2" d="M143.14,87.61a151.24,151.24,0,0,0,24-3.72" transform="translate(-42.51 -18.87)"/><path class="cls-3" d="M170.67,83.08c4-.94,8.4-2,13.39-3.33,56.63-14.59,83.73-16.52,105.2-16" transform="translate(-42.51 -18.87)"/><path class="cls-1" d="M292.88,63.86l3.49.15" transform="translate(-42.51 -18.87)"/><path class="cls-1" d="M433.21,111.25c1.15,0,2.31-.06,3.49-.11" transform="translate(-42.51 -18.87)"/><path class="cls-4" d="M442.8,110.83c7.33-.48,15.27-1.34,23.75-2.73" transform="translate(-42.51 -18.87)"/><path class="cls-5" d="M470.07,107.5q9.66-1.71,20.18-4.39c56.44-14.54,76.35-16.51,96.26-16" transform="translate(-42.51 -18.87)"/><path class="cls-1" d="M590.07,87.22l3.5.14" transform="translate(-42.51 -18.87)"/><polyline class="cls-6" points="532.5 87.06 551.06 68.5 532.5 49.94"/><polygon class="cls-6" points="49.35 29.94 2 29.94 2 119.57 71.33 119.57 71.33 51.93 49.35 29.94"/><polyline class="cls-6" points="49.35 29.94 49.35 51.93 71.33 51.93"/><polygon class="cls-6" points="69.13 13.59 21.78 13.59 21.78 103.22 91.11 103.22 91.11 35.57 69.13 13.59"/><polyline class="cls-6" points="69.13 13.59 69.13 35.57 91.11 35.57"/><rect class="cls-6" x="255.14" y="6.06" width="135.56" height="105.08" rx="3.64"/><rect class="cls-6" x="270.14" y="19" width="105.57" height="70.08" rx="3.64"/><path class="cls-6" d="M380.88,133.16c0,7.56,13.09,13.68,29.25,13.68H319.36c16.15,0,29.25-6.12,29.25-13.68V130h32.27Z" transform="translate(-42.51 -18.87)"/><circle class="cls-6" cx="617.88" cy="71.19" r="64.69"/><polyline class="cls-6" points="676 2 613.58 89.9 589.65 72.72"/><polyline class="cls-6" points="235.31 63.7 253.87 45.14 235.31 26.58"/><circle class="cls-6" cx="618.1" cy="71.59" r="64.69"/><circle class="cls-6" cx="618.1" cy="71.59" r="48.09"/><line class="cls-1" x1="302.25" y1="38" x2="353.25" y2="38"/><line class="cls-1" x1="293.75" y1="38" x2="297.25" y2="38"/><line class="cls-1" x1="302.25" y1="48" x2="353.25" y2="48"/><line class="cls-1" x1="293.75" y1="48" x2="297.25" y2="48"/><line class="cls-1" x1="302.25" y1="58" x2="353.25" y2="58"/><line class="cls-1" x1="293.75" y1="58" x2="297.25" y2="58"/><line class="cls-1" x1="302.25" y1="67" x2="353.25" y2="67"/><line class="cls-1" x1="293.75" y1="67" x2="297.25" y2="67"/></svg>